<svg xmlns="http://www.w3.org/2000/svg" viewBox="0 0 64 64" fill="none">
  <rect width="64" height="64" rx="12" fill="#1e3a5f"/>
  <g transform="translate(8, 8) scale(1.05)">
    <!-- Package boxes -->
    <rect x="6" y="10" width="12" height="12" rx="1.5" fill="#D6BCA2"/>
    <rect x="7" y="10" width="2" height="12" fill="#1e3a5f" opacity="0.15"/>
    <rect x="20" y="14" width="10" height="8" rx="1.5" fill="#D6BCA2"/>
    <rect x="21" y="14" width="2" height="8" fill="#1e3a5f" opacity="0.15"/>
    <!-- Truck cab -->
    <path d="M4 22h22v16H4z" fill="#ffffff"/>
    <!-- Truck front -->
    <path d="M26 26h10l6 6v6H26z" fill="#ffffff"/>
    <!-- Window -->
    <path d="M28 27h7l4 4v1H28z" fill="#87CEEB" opacity="0.6"/>
    <!-- Wheels -->
    <circle cx="12" cy="40" r="4.5" fill="#ffffff"/>
    <circle cx="12" cy="40" r="2" fill="#1e3a5f"/>
    <circle cx="36" cy="40" r="4.5" fill="#ffffff"/>
    <circle cx="36" cy="40" r="2" fill="#1e3a5f"/>
    <!-- Speed lines -->
    <rect x="0" y="26" width="5" height="1.5" rx="0.75" fill="#D6BCA2" opacity="0.7"/>
    <rect x="0" y="31" width="7" height="1.5" rx="0.75" fill="#D6BCA2" opacity="0.5"/>
    <rect x="0" y="36" width="4" height="1.5" rx="0.75" fill="#D6BCA2" opacity="0.3"/>
  </g>
</svg>
