<svg xmlns="http://www.w3.org/2000/svg" viewBox="0 0 200 140" fill="none" aria-hidden="true">
  <defs>
    <linearGradient id="g4w-bg" x1="0" y1="0" x2="200" y2="140" gradientUnits="userSpaceOnUse">
      <stop stop-color="#ECFDF5"/>
      <stop offset="1" stop-color="#F8FAFC"/>
    </linearGradient>
  </defs>
  <rect width="200" height="140" rx="20" fill="url(#g4w-bg)"/>
  <path d="M12 108c42-12 72-12 114 0 34 10 50 8 64-8" stroke="#CBD5E1" stroke-width="2" stroke-linecap="round"/>
  <!-- deck + cabin (mini truck) -->
  <path d="M36 54h52c16 0 30 12 30 28v24H36V54z" fill="#059669"/>
  <path d="M88 54h40l28 20c10 7 14 16 14 28v4H88V54z" fill="#047857"/>
  <!-- pallets / cartons on flatbed -->
  <rect x="44" y="62" width="36" height="22" rx="3" fill="#6EE7B7"/>
  <rect x="50" y="56" width="28" height="14" rx="2" fill="#34D399" opacity=".9"/>
  <path d="M52 68h20M56 60h16" stroke="#065F46" stroke-width="1.5" stroke-linecap="round" opacity=".4"/>
  <!-- wheels -->
  <circle cx="54" cy="104" r="12" fill="#0F172A"/>
  <circle cx="54" cy="104" r="5" fill="#A7F3D0"/>
  <circle cx="92" cy="104" r="12" fill="#0F172A"/>
  <circle cx="92" cy="104" r="5" fill="#A7F3D0"/>
  <circle cx="130" cy="104" r="12" fill="#0F172A"/>
  <circle cx="130" cy="104" r="5" fill="#A7F3D0"/>
  <circle cx="162" cy="104" r="12" fill="#0F172A"/>
  <circle cx="162" cy="104" r="5" fill="#A7F3D0"/>
</svg>
